<svg xmlns="http://www.w3.org/2000/svg" viewBox="0 0 900 900">
  <defs>
    <linearGradient id="bg" x1="0" x2="1" y1="0" y2="1">
      <stop offset="0%" stop-color="#f3f6e9"/>
      <stop offset="100%" stop-color="#edf0f4"/>
    </linearGradient>
    <linearGradient id="shell" x1="0" x2="1" y1="0" y2="1">
      <stop offset="0%" stop-color="#1a1a1a"/>
      <stop offset="100%" stop-color="#2c2c2c"/>
    </linearGradient>
  </defs>
  <rect width="900" height="900" fill="url(#bg)"/>
  <circle cx="708" cy="223" r="145" fill="#C4E600" opacity="0.18"/>
  <circle cx="236" cy="720" r="120" fill="#DDE7A4" opacity="0.36"/>
  <rect x="255" y="135" width="390" height="630" rx="60" fill="url(#shell)"/>
  <rect x="305" y="180" width="290" height="540" rx="33" fill="#fafaf8"/>
  <path d="M395 536 450 360l55 176 59 71h-114l-55-71Z" fill="#C4E600"/>
  <rect x="350" y="266" width="200" height="42" rx="21" fill="#e5e5df"/>
  <rect x="350" y="320" width="200" height="18" rx="9" fill="#d8d8d3"/>
  <rect x="350" y="360" width="150" height="18" rx="9" fill="#d8d8d3"/>
  <rect x="525" y="466" width="68" height="98" rx="22" fill="#171717"/>
  <rect x="351" y="536" width="180" height="54" rx="27" fill="#171717"/>
</svg>
